<svg xmlns="http://www.w3.org/2000/svg" viewBox="0 0 1200 630" width="1200" height="630">
  <!-- Background -->
  <rect width="1200" height="630" fill="#FAF8F5"/>

  <!-- Decorative circles -->
  <circle cx="1060" cy="120" r="280" fill="#2A7F6F" opacity="0.05"/>
  <circle cx="980" cy="520" r="200" fill="#C4714F" opacity="0.06"/>
  <circle cx="1150" cy="400" r="160" fill="#2A7F6F" opacity="0.04"/>

  <!-- Left accent bar -->
  <rect width="7" height="630" fill="#2A7F6F"/>

  <!-- Bottom rule -->
  <rect x="0" y="598" width="1200" height="32" fill="#2A7F6F" opacity="0.07"/>

  <!-- Decorative speech bubbles (right side) -->
  <rect x="740" y="120" width="220" height="140" rx="22" fill="#2A7F6F" opacity="0.09"/>
  <polygon points="760,260 800,260 772,296" fill="#2A7F6F" opacity="0.09"/>

  <rect x="820" y="310" width="160" height="100" rx="18" fill="#C4714F" opacity="0.09"/>
  <polygon points="880,410 916,410 895,440" fill="#C4714F" opacity="0.09"/>

  <rect x="680" y="430" width="130" height="80" rx="14" fill="#2A7F6F" opacity="0.07"/>

  <!-- Sound wave arcs -->
  <path d="M 660 235 Q 620 265 620 305 Q 620 345 660 375" stroke="#2A7F6F" stroke-width="4" fill="none" opacity="0.12" stroke-linecap="round"/>
  <path d="M 640 215 Q 590 255 590 305 Q 590 355 640 395" stroke="#2A7F6F" stroke-width="3" fill="none" opacity="0.08" stroke-linecap="round"/>

  <!-- Decorative dots -->
  <circle cx="620" cy="140" r="10" fill="#C4714F" opacity="0.2"/>
  <circle cx="648" cy="165" r="7" fill="#2A7F6F" opacity="0.18"/>
  <circle cx="635" cy="195" r="5" fill="#C4714F" opacity="0.15"/>

  <!-- Main text block -->
  <!-- Label -->
  <text x="72" y="185" font-family="Arial, Helvetica, sans-serif" font-size="18" font-weight="700" letter-spacing="4" fill="#2A7F6F" opacity="0.7">LOGOPÄDISCHE PRAXIS · DUISBURG</text>

  <!-- Practice name -->
  <text x="68" y="290" font-family="Georgia, 'Times New Roman', serif" font-size="96" font-weight="700" fill="#1A2E2B" letter-spacing="-2">Logopädie</text>
  <text x="68" y="390" font-family="Georgia, 'Times New Roman', serif" font-size="96" font-weight="700" fill="#2A7F6F" letter-spacing="-2">Şimşek</text>

  <!-- Accent rule -->
  <rect x="68" y="415" width="100" height="5" rx="2.5" fill="#C4714F"/>

  <!-- Tagline -->
  <text x="68" y="478" font-family="Arial, Helvetica, sans-serif" font-size="26" fill="#4A6E68" letter-spacing="0.5">Zweisprachige Sprachtherapie für alle Altersgruppen</text>

  <!-- Language badge -->
  <rect x="68" y="510" width="128" height="46" rx="23" fill="#2A7F6F"/>
  <text x="132" y="539" font-family="Arial, Helvetica, sans-serif" font-size="19" font-weight="700" fill="white" text-anchor="middle" letter-spacing="2">DE · TR</text>

  <!-- URL -->
  <text x="68" y="586" font-family="Arial, Helvetica, sans-serif" font-size="20" fill="#7A9B97" opacity="0.8">logopaedie-simsek.de</text>
</svg>
